<?xml version="1.0" standalone="no"?><!DOCTYPE svg PUBLIC "-//W3C//DTD SVG 1.1//EN" "http://www.w3.org/Graphics/SVG/1.1/DTD/svg11.dtd"><svg t="1706149682303" class="icon" viewBox="0 0 1024 1024" version="1.1" xmlns="http://www.w3.org/2000/svg" p-id="17242" width="128" height="128" xmlns:xlink="http://www.w3.org/1999/xlink"><path d="M716.8 0H307.2C137.5488 0 0 137.5488 0 307.2v409.6c0 169.6512 137.5488 307.2 307.2 307.2h409.6c169.6512 0 307.2-137.5488 307.2-307.2V307.2c0-169.6512-137.5488-307.2-307.2-307.2z" fill="#FFEBEB" p-id="17243"></path><path d="M409.6 256a25.6 25.6 0 0 0-25.6 25.6v51.2h-102.4a76.8 76.8 0 0 0-76.8 76.8v76.8h588.8v-76.8a76.8 76.8 0 0 0-76.8-76.8h-102.4v-51.2a25.6 25.6 0 0 0-25.6-25.6h-179.2z m179.2 76.8h-179.2v-25.6a25.6 25.6 0 0 1 25.6-25.6h128a25.6 25.6 0 0 1 25.6 25.6v25.6z" fill="#FF8E91" p-id="17244"></path><path d="M793.6 537.6h-76.8v115.2a12.8 12.8 0 0 1-25.6 0V537.6h-103.3216a89.6 89.6 0 0 1-177.3568 0H307.2v115.2a12.8 12.8 0 0 1-25.6 0V537.6H204.8v153.6a76.8 76.8 0 0 0 76.8 76.8h435.2a76.8 76.8 0 0 0 76.8-76.8v-153.6z m-356.2496 0h123.6992a63.1808 63.1808 0 0 1-123.6992 0z" fill="#FE5570" p-id="17245"></path><path d="M358.4 665.6m25.6 0l153.6 0q25.6 0 25.6 25.6l0 0q0 25.6-25.6 25.6l-153.6 0q-25.6 0-25.6-25.6l0 0q0-25.6 25.6-25.6Z" fill="#FFFFFF" p-id="17246"></path><path d="M588.8 665.6m25.6 0l0 0q25.6 0 25.6 25.6l0 0q0 25.6-25.6 25.6l0 0q-25.6 0-25.6-25.6l0 0q0-25.6 25.6-25.6Z" fill="#FFFFFF" p-id="17247"></path></svg>